<svg xmlns="http://www.w3.org/2000/svg" viewBox="0 0 600 870" width="600" height="870" font-family="-apple-system,Helvetica Neue,Helvetica,Arial,sans-serif">

<marker id="arr" viewBox="0 0 10 10" refX="9" refY="5" markerWidth="7" markerHeight="7" orient="auto"><path d="M0,0 L10,5 L0,10 z" fill="#555"/></marker>

<!-- A: PDF öffnen -->
<rect x="165" y="10" width="220" height="50" rx="8" fill="#4a9eff" stroke="#2d7dd2" stroke-width="1.5"/>
<text x="275" y="41" text-anchor="middle" fill="white" font-size="15" font-weight="bold">PDF öffnen</text>
<line x1="275" y1="60" x2="275" y2="78" stroke="#555" stroke-width="2" marker-end="url(#arr)"/>

<!-- B: PDF laden & anzeigen -->
<rect x="165" y="78" width="220" height="44" rx="8" fill="#f0f3f7" stroke="#adb5bd" stroke-width="1.5"/>
<text x="275" y="105" text-anchor="middle" fill="#222" font-size="13">PDF laden &amp; anzeigen</text>
<line x1="275" y1="122" x2="275" y2="140" stroke="#555" stroke-width="2" marker-end="url(#arr)"/>

<!-- C: Blättern -->
<rect x="165" y="140" width="220" height="44" rx="8" fill="#f0f3f7" stroke="#adb5bd" stroke-width="1.5"/>
<text x="275" y="167" text-anchor="middle" fill="#222" font-size="13">Blättern ◀ / ▶</text>
<line x1="275" y1="184" x2="275" y2="210" stroke="#555" stroke-width="2" marker-end="url(#arr)"/>

<!-- D: Taste/Button (diamond) -->
<polygon points="275,210 350,258 275,306 200,258" fill="#fff8e1" stroke="#c99700" stroke-width="1.5"/>
<text x="275" y="255" text-anchor="middle" fill="#5a4800" font-size="12">Taste /</text>
<text x="275" y="270" text-anchor="middle" fill="#5a4800" font-size="12">Button</text>

<!-- ← zurück zu C -->
<polyline points="200,258 115,258 115,162 165,162" fill="none" stroke="#555" stroke-width="2" marker-end="url(#arr)"/>
<text x="105" y="215" text-anchor="end" fill="#555" font-size="11">◀ / ▶</text>

<!-- F → runter zu E -->
<polyline points="350,258 400,258 400,310 385,310" fill="none" stroke="#555" stroke-width="2" marker-end="url(#arr)"/>
<text x="408" y="285" text-anchor="start" fill="#555" font-size="11">F</text>

<!-- E: Startseite festlegen -->
<rect x="165" y="310" width="220" height="44" rx="8" fill="#f0f3f7" stroke="#adb5bd" stroke-width="1.5"/>
<text x="275" y="337" text-anchor="middle" fill="#222" font-size="13">Startseite festlegen</text>
<line x1="275" y1="354" x2="275" y2="372" stroke="#555" stroke-width="2" marker-end="url(#arr)"/>

<!-- F: Titeleingabe -->
<rect x="165" y="372" width="220" height="55" rx="8" fill="#ff6b6b" stroke="#e05555" stroke-width="1.5"/>
<text x="275" y="397" text-anchor="middle" fill="white" font-size="14" font-weight="bold">Titeleingabe</text>
<text x="275" y="415" text-anchor="middle" fill="white" font-size="11">(OCR-Vorschlag)</text>

<!-- Abbrechen: zurück zu C -->
<polyline points="385,399 510,399 510,162 385,162" fill="none" stroke="#999" stroke-width="1.5" stroke-dasharray="6,3" marker-end="url(#arr)"/>
<text x="520" y="285" text-anchor="start" fill="#999" font-size="11">Abbrechen</text>

<!-- OK -->
<line x1="275" y1="427" x2="275" y2="450" stroke="#555" stroke-width="2" marker-end="url(#arr)"/>
<text x="287" y="443" text-anchor="start" fill="#555" font-size="11">OK</text>

<!-- G: Zur Endseite blättern -->
<rect x="165" y="450" width="220" height="44" rx="8" fill="#f0f3f7" stroke="#adb5bd" stroke-width="1.5"/>
<text x="275" y="477" text-anchor="middle" fill="#222" font-size="13">Zur Endseite blättern</text>
<line x1="275" y1="494" x2="275" y2="512" stroke="#555" stroke-width="2" marker-end="url(#arr)"/>
<text x="287" y="508" text-anchor="start" fill="#555" font-size="11">L</text>

<!-- H: Endseite festlegen -->
<rect x="165" y="512" width="220" height="44" rx="8" fill="#f0f3f7" stroke="#adb5bd" stroke-width="1.5"/>
<text x="275" y="539" text-anchor="middle" fill="#222" font-size="13">Endseite festlegen</text>
<line x1="275" y1="556" x2="275" y2="574" stroke="#555" stroke-width="2" marker-end="url(#arr)"/>

<!-- I: Abschnitt speichern -->
<rect x="165" y="574" width="220" height="44" rx="8" fill="#f0f3f7" stroke="#adb5bd" stroke-width="1.5"/>
<text x="275" y="601" text-anchor="middle" fill="#222" font-size="13">Abschnitt speichern</text>

<!-- 3 Äste von I -->
<line x1="210" y1="618" x2="110" y2="658" stroke="#555" stroke-width="2" marker-end="url(#arr)"/>
<line x1="275" y1="618" x2="275" y2="658" stroke="#555" stroke-width="2" marker-end="url(#arr)"/>
<line x1="340" y1="618" x2="460" y2="658" stroke="#555" stroke-width="2" marker-end="url(#arr)"/>

<!-- J: PDF-Datei -->
<rect x="20" y="658" width="180" height="50" rx="8" fill="#2ed573" stroke="#20c05a" stroke-width="1.5"/>
<text x="110" y="679" text-anchor="middle" fill="white" font-size="12" font-weight="bold">PDF-Datei im</text>
<text x="110" y="696" text-anchor="middle" fill="white" font-size="12" font-weight="bold">Ordner Manual_Splits</text>

<!-- K: Fortschritt merken -->
<rect x="200" y="658" width="150" height="44" rx="8" fill="#f0f3f7" stroke="#adb5bd" stroke-width="1.5"/>
<text x="275" y="685" text-anchor="middle" fill="#222" font-size="12">Fortschritt merken</text>

<!-- L: Noch Seiten? (diamond) -->
<polygon points="490,658 555,700 490,742 425,700" fill="#fff8e1" stroke="#c99700" stroke-width="1.5"/>
<text x="490" y="697" text-anchor="middle" fill="#5a4800" font-size="11">Noch Seiten</text>
<text x="490" y="711" text-anchor="middle" fill="#5a4800" font-size="11">übrig?</text>

<!-- Ja: zurück zu E (dashed) -->
<polyline points="555,700 570,700 570,332 385,332" fill="none" stroke="#555" stroke-width="2" stroke-dasharray="6,3" marker-end="url(#arr)"/>
<text x="578" y="520" text-anchor="start" fill="#555" font-size="12" font-weight="bold">Ja</text>

<!-- Nein: runter zu M -->
<line x1="490" y1="742" x2="490" y2="780" stroke="#555" stroke-width="2" marker-end="url(#arr)"/>
<text x="502" y="768" text-anchor="start" fill="#555" font-size="11">Nein</text>

<!-- M: Fertig -->
<rect x="380" y="780" width="220" height="50" rx="8" fill="#ffa502" stroke="#e09002" stroke-width="1.5"/>
<text x="490" y="810" text-anchor="middle" fill="white" font-size="15" font-weight="bold">Fertig</text>

</svg>